<?xml version="1.0" standalone="no"?>
<!DOCTYPE svg PUBLIC "-//W3C//DTD SVG 20010904//EN"
 "http://www.w3.org/TR/2001/REC-SVG-20010904/DTD/svg10.dtd">
<svg version="1.0" xmlns="http://www.w3.org/2000/svg"
 width="512.000000pt" height="512.000000pt" viewBox="0 0 512.000000 512.000000"
 preserveAspectRatio="xMidYMid meet">
<metadata>
Created by potrace 1.14, written by Peter Selinger 2001-2017
</metadata>
<g transform="translate(0.000000,512.000000) scale(0.100000,-0.100000)"
fill="#000000" stroke="none">
<path d="M5099 3636 c-2 -2 -31 -7 -64 -10 -33 -3 -78 -8 -100 -11 -22 -3 -60
-7 -85 -10 -25 -3 -79 -10 -121 -15 -41 -6 -95 -12 -118 -15 -24 -2 -51 -7
-60 -9 -9 -3 -36 -8 -61 -11 -25 -3 -85 -13 -135 -21 -49 -8 -103 -17 -120
-20 -16 -3 -79 -14 -140 -25 -60 -12 -121 -23 -135 -25 -188 -34 -649 -149
-905 -225 -129 -39 -434 -138 -460 -149 -11 -5 -101 -39 -200 -76 -924 -344
-1787 -866 -2383 -1441 -10 -10 -8 -19 11 -50 l24 -38 281 0 280 0 119 111
c99 94 243 222 317 284 10 8 23 20 30 25 85 75 358 277 511 379 72 47 135 89
140 94 22 17 268 164 376 225 253 141 594 305 864 414 61 24 124 50 140 58 64
28 397 145 550 193 472 149 820 232 1340 322 66 12 121 23 124 26 6 5 -14 26
-20 20z"/>
<path d="M65 2849 c-8 -15 -15 -30 -15 -33 0 -2 155 -117 345 -256 l345 -251
57 32 c32 17 63 35 68 39 6 4 76 42 157 83 l147 76 -32 23 c-18 12 -99 72
-182 133 -82 61 -174 128 -202 147 l-53 36 -310 0 -311 0 -14 -29z"/>
<path d="M1570 2173 c-138 -107 -300 -238 -300 -244 0 -4 136 -106 303 -226
l302 -219 310 2 c171 1 313 2 316 3 3 0 11 12 17 25 9 20 7 27 -11 43 -18 17
-397 295 -735 541 -48 34 -95 69 -104 77 -41 34 -51 33 -98 -2z"/>
</g>
</svg>
